/* XPM */
static char *_644853067882[] = {
/* columns rows colors chars-per-pixel */
"64 64 229 2 ",
"   c #010204",
".  c #0B0101",
"X  c #000A03",
"o  c #00040B",
"O  c #010A0C",
"+  c #0B0608",
"@  c #130200",
"#  c #150503",
"$  c #041103",
"%  c #000412",
"&  c #010B13",
"*  c #00051C",
"=  c #000C18",
"-  c #0C0C16",
";  c #001114",
":  c #0F1015",
">  c #181519",
",  c #2A1B03",
"<  c #341B01",
"1  c #391D06",
"2  c #261C12",
"3  c #17201F",
"4  c #2B2208",
"5  c #362308",
"6  c #382514",
"7  c #000520",
"8  c #1E1E20",
"9  c #241A22",
"0  c #1B2224",
"q  c #182626",
"w  c #1D2D3C",
"e  c #1D2331",
"r  c #1D323D",
"t  c #1F3437",
"y  c #242426",
"u  c #25252A",
"i  c #2A2628",
"p  c #372C28",
"a  c #272C34",
"s  c #3D2D33",
"d  c #332D34",
"f  c #22333E",
"g  c #29333E",
"h  c #273335",
"j  c #343235",
"k  c #393234",
"l  c #323836",
"z  c #353439",
"x  c #3A333A",
"c  c #36393A",
"v  c #39383B",
"b  c #393836",
"n  c #363324",
"m  c #442608",
"M  c #493419",
"N  c #583817",
"B  c #4B2F0F",
"V  c #633607",
"C  c #713C05",
"Z  c #693F1A",
"A  c #4A3624",
"S  c #533B23",
"D  c #433234",
"F  c #40333A",
"G  c #33413E",
"H  c #43401F",
"J  c #76410C",
"K  c #6A4217",
"L  c #784618",
"P  c #5C4126",
"I  c #504E31",
"U  c #784F26",
"Y  c #67552A",
"T  c #75572E",
"R  c #695837",
"E  c #765734",
"W  c #6A4B2C",
"Q  c #172E42",
"!  c #2A3442",
"~  c #283843",
"^  c #383A42",
"/  c #3C4F58",
"(  c #3C5A5D",
")  c #3C5758",
"_  c #3D4142",
"`  c #3C5664",
"'  c #4A484B",
"]  c #554D4D",
"[  c #504448",
"{  c #53504D",
"}  c #4E4D51",
"|  c #494D5B",
" . c #544E52",
".. c #584D54",
"X. c #435555",
"o. c #4E5152",
"O. c #415956",
"+. c #44545D",
"@. c #445A5B",
"#. c #4A5A5D",
"$. c #4D5655",
"%. c #535254",
"&. c #5B5256",
"*. c #59545A",
"=. c #50605F",
"-. c #435562",
";. c #4B5463",
":. c #445A64",
">. c #4A5964",
",. c #455868",
"<. c #4B5A6A",
"1. c #48576A",
"2. c #515F67",
"3. c #49646A",
"4. c #4E6477",
"5. c #586875",
"6. c #5A797E",
"7. c #5E6367",
"8. c #6A7A7F",
"9. c #82450C",
"0. c #854B16",
"q. c #915319",
"w. c #8A511C",
"e. c #835327",
"r. c #5D7C8D",
"t. c #57798A",
"y. c #5D7D93",
"u. c #5F7F98",
"i. c #6B7C85",
"p. c #647C8B",
"a. c #6B7D8C",
"s. c #667785",
"d. c #717A89",
"f. c #627E93",
"g. c #647D9B",
"h. c #6C7D91",
"j. c #757B93",
"k. c #657DA1",
"l. c #5C828E",
"z. c #5A848B",
"x. c #5D8293",
"c. c #5D8A98",
"v. c #5A8797",
"b. c #65828D",
"n. c #6B818E",
"m. c #69878A",
"M. c #72848D",
"N. c #788788",
"B. c #648495",
"V. c #6A8394",
"C. c #648996",
"Z. c #6A8994",
"A. c #658498",
"S. c #69839A",
"D. c #66899A",
"F. c #6C8B9D",
"G. c #718492",
"H. c #748A96",
"J. c #728C9B",
"K. c #76869A",
"L. c #66929B",
"P. c #75909D",
"I. c #7A939B",
"U. c #6B85A1",
"Y. c #6E8CA4",
"T. c #728DA2",
"R. c #7287A4",
"E. c #7493A3",
"W. c #7B94A2",
"Q. c #7A96AA",
"!. c #7C98B0",
"~. c #7FA5A6",
"^. c #8A9B9E",
"/. c #9B9A96",
"(. c #88A597",
"). c #8A9DA4",
"_. c #849DA9",
"`. c #8C9FAA",
"'. c #959FA2",
"]. c #849FB5",
"[. c #8DA3A3",
"{. c #85A1AD",
"}. c #8CA2AC",
"|. c #89A7A8",
" X c #93A5A7",
".X c #93A8A9",
"XX c #85A2B4",
"oX c #8CA2B6",
"OX c #9ABCBD",
"+X c #93ACB0",
"@X c #99DDD8",
"#X c #A6DEDB",
"$X c #9CE2DE",
"%X c #B9E1D9",
"&X c #9EE5E1",
"*X c #ABE9E9",
"=X c #A8E9E8",
"-X c #B5E8E8",
";X c #BCFAF8",
":X c #BCF0EE",
">X c #C9EEEB",
",X c #D1EFEC",
"<X c #DBEDED",
"1X c #D8E7EC",
"2X c #CEF2EE",
"3X c #C4F3ED",
"4X c #D5F4EE",
"5X c #DBF2EE",
"6X c #DBFBEE",
"7X c #D3EFF2",
"8X c #DBEEF2",
"9X c #C4F3F4",
"0X c #CCF4F3",
"qX c #C5FBF7",
"wX c #CBFAF6",
"eX c #C4F6FA",
"rX c #CCF6FB",
"tX c #C5FCFD",
"yX c #CBFBFC",
"uX c #D3F3F3",
"iX c #DAF4F2",
"pX c #D1F9F6",
"aX c #D4F5FA",
"sX c #D9F4FA",
"dX c #D3FBFC",
"fX c #DBFDFC",
"gX c #CEEDF2",
"hX c #E3F9FA",
"jX c #E1EBED",
/* pixels */
"A.A.A.A.A.A.A.A.A.A.A.A.A.A.A.V.C.B.B.C.B.B.A.C.A.c.A.A.A.A.S.S.S.S.S.S.A.A.A.c.c.U.x.A.A.U.S.S.S.A.A.A.A.A.A.A.A.A.A.A.A.A.A.A.",
"A.A.A.A.A.V.A.A.A.A.A.A.A.A.A.A.B.B.B.B.C.B.A.A.A.A.A.A.A.A.A.g.V.S.g.A.A.B.A.A.A.A.A.A.A.A.g.S.A.A.A.A.A.A.A.A.A.A.A.A.A.A.A.A.",
"A.A.A.A.A.A.B.A.A.A.A.V.A.A.A.A.A.A.A.x.B.c.A.A.A.A.A.A.x.A.A.A.A.S.A.A.A.A.c.A.c.x.A.A.A.A.g.A.A.A.A.A.A.A.A.A.A.V.A.A.A.A.B.A.",
"A.A.A.A.A.A.A.A.B.A.A.f.A.A.A.A.A.A.A.A.A.A.A.B.A.A.A.A.A.A.U.A.A.A.A.A.A.c.A.x.U.x.c.U.A.A.A.S.A.A.A.A.A.A.V.A.A.A.A.A.A.A.A.V.",
"A.A.A.B.A.A.A.A.A.A.A.A.A.A.A.A.x.A.A.A.A.A.A.A.A.A.A.c.A.A.A.x.A.A.A.A.x.c.x.U.x.A.A.x.A.A.A.A.A.A.A.A.A.A.A.f.A.A.A.A.A.A.f.S.",
"A.V.A.A.A.A.A.A.A.B.A.A.A.A.A.A.U.x.U.c.A.A.A.A.A.x.A.B.A.c.c.A.A.A.A.c.U.c.x.c.A.c.c.A.C.A.A.A.A.A.A.A.B.A.A.A.A.A.A.V.A.A.A.A.",
"A.A.A.A.A.A.A.A.V.A.A.A.A.A.A.V.k.U.x.U.A.A.A.A.D.A.A.A.A.x.c.c.x.A.A.A.x.A.A.A.c.A.A.c.B.B.B.B.A.A.A.A.A.A.A.A.A.A.A.A.A.A.A.A.",
"A.A.A.A.V.A.A.A.A.A.A.A.A.A.A.A.v.U.U.A.A.A.V.A.A.A.B.B.A.A.A.B.A.A.A.A.D.c.A.A.A.B.A.B.C.A.B.B.A.V.A.A.A.A.V.A.A.A.A.A.A.A.A.A.",
"A.A.A.B.A.A.A.A.A.A.A.A.A.A.A.A.Y.y.U.A.A.r.F.a.n.V.b.V.b.B.B.B.f.B.B.h.B.n.B.B.V.B.V.r.F.x.C.D.A.A.A.A.A.A.A.A.B.A.A.A.A.B.A.A.",
"V.A.A.A.A.V.A.A.A.A.A.A.A.A.A.A.u.u.D.g.U.h.H.n.V.M.Z.n.n.Z.V.V.V.G.V.V.G.V.V.V.b.B.Z.B.F.B.B.c.A.A.A.A.A.A.A.A.A.A.A.A.A.A.A.A.",
"A.A.A.A.A.A.A.A.f.A.A.A.A.A.A.A.S.S.F.A.J.4.+.-.+.+.+.+.+.-.-.-.+.;.+.+.-.-.-.,.n.n.V.p.A.b.C.B.B.A.A.A.A.A.S.A.A.V.A.A.A.A.A.A.",
"A.A.A.A.A.A.A.A.A.V.A.A.A.A.A.V.A.f.f.h.a.f o o o   o o O o o o o % O O % % % % H.V.V.B.B.x.C.C.A.A.V.A.A.A.A.A.A.A.A.A.A.A.A.V.",
"A.A.A.A.A.A.A.A.A.A.A.A.A.A.A.A.S.F.F.n.n.g o X             o o       o o   % o i.s.s.J.A.A.C.A.A.A.V.A.f.S.A.A.V.A.A.A.A.A.V.A.",
"f.A.A.V.A.A.A.A.A.V.f.A.A.A.A.A.r.V.4.t g e 0 y b b b b v v z v v x v v x ^ ^ ! ! ! -.M.V.B.A.c.A.A.A.A.A.A.A.A.A.B.A.A.f.A.A.A.",
"A.A.A.A.A.A.A.A.A.A.A.A.A.A.A.A.V.J.:.% O q c b { { ] { { ]  .{  .] ] ]  . .%.| o o Q p.b.A.B.B.A.A.A.A.A.A.A.A.A.A.A.A.A.A.A.A.",
"A.A.A.A.V.A.A.A.A.A.A.A.A.A.A.V.a.G.+.o O 0 b k { ] ] ] ] ] %. .] ] ] .. . .%.%.o o g j.G.V.b.V.B.A.A.A.A.A.A.A.V.A.A.A.A.A.A.A.",
"B.A.x.A.A.A.A.A.U.A.A.D.A.A.A.f.% o : l k ' ] ..&.[ ] &.] [ &. .] ] .. .]  . . .[ ;.^ o % ;.n.s.B.x.C.y.U.A.A.U.g.S.S.A.A.A.B.B.",
"A.c.A.c.A.A.A.A.A.A.A.A.A.U.A.h.o   : v x [ ] ........&.%.&.%. ... . .o. .o.%.{ ..&.d o % | N.H.B.B.D.x.T.A.A.S.S.S.S.g.A.A.C.B.",
"A.B.A.A.A.A.A.U.A.A.D.D.A.A.A.A.o   : _ _ '  .} } %.' j j l l j x z b l l l l l x ^ u o - ~ +.:.B.A.A.f.V.f.S.S.S.S.A.S.A.B.b.B.",
"A.A.A.A.U.A.A.x.A.A.A.A.A.A.g.V.o   3 ' ' o.} } %.%.h       o O o       X     X           O O o H.V.V.A.B.A.D.A.A.A.A.A.V.A.B.B.",
"S.A.S.A.x.A.A.A.A.A.C.A.A.A.A.b.o   0  .o.%.o.o.} } d o                         .         o   o i.s.p.K.A.V.D.A.A.A.A.A.A.V.V.A.",
"g.S.A.S.A.A.x.U.A.A.A.D.A.B.A.n.o   8 | %.%. .} 8 u y 8 y y y y u u u u u u y y i i 9 i y u u a ! ! -.V.B.V.A.x.c.A.x.A.B.V.V.V.",
"S.S.S.S.A.A.A.A.A.B.D.A.C.B.A.n.o . 9 ...... . .. . > d x x x x x x x z k j d s D D D D s k d d o o Q s.b.B.b.C.A.c.A.A.S.S.S.h.",
"S.g.g.A.A.A.c.A.A.A.A.C.A.A.A.a.o   9 ...... . .+   > j x d x d x j z k j z s s p D D D s x x j o o ! M.G.V.x.C.A.c.A.D.S.h.G.S.",
"S.g.S.S.A.A.A.A.B.x.x.Y.p.Z.A.M.o +     + +           o         o o o         . . . . . .     o - o f G.p.b.C.C.c.x.c.A.A.h.S.j.",
"h.S.S.S.A.A.A.A.B.C.C.F.f.F.f.a.o         X o o                 o     X   X           . o o     o o f n.V.B.B.x.c.A.A.A.g.S.S.S.",
"S.g.S.S.A.A.A.c.B.D.B.Z.p.V.a.p.O   q 2.X.O.O.O.X.O.O.) X.O.O.) X.@.O.) O.) O.O.X.$._     q t t ! ~ ` a.V.Z.x.A.A.A.x.A.A.h.V.S.",
"g.S.S.A.A.c.A.A.x.B.p.b.V.V.G.K.O   O.<X5X5X4XiX4X4X4X4X4X4X4X4XuXuXiX4X6X4X4X4X5X5X[.O O ) m.6.p.h.s.V.B.V.A.S.A.A.A.D.S.V.S.V.",
"S.S.g.A.A.A.c.B.C.D.A.V.H.a.s.p.O   @.<X5XiX,XiX4X4X4X4XiX4XuX5XiXiX4XuX2XpX4X6X<XiX^.O o @.P.m.b.P.V.S.A.F.f.S.A.A.A.A.A.V.B.V.",
"S.S.A.U.A.c.B.x.C.C.V.b.V./ ! ! &   0 2.X.@.O.X.) O.O.) O.O.X.O.@.@.) @.O.O.) O.$.#.^ o o ) z.b.r.S.B.A.A.Q.T.Q.A.S.S.A.A.A.B.B.",
"A.A.A.A.A.c.A.A.Z.B.V.n.s.w % % o         o O O                   o   X   O     o o + % & <.d.G.A.D.x.A.g.!.].oXg.S.V.A.B.B.B.C.",
"A.A.A.A.x.A.A.c.A.B.V.V.G.f % % o + o   o o   o       o   o o o o o   O o     X o + o % o ;.a.V.B.c.x.A.A.!.].oXh.V.A.A.B.C.B.B.",
"A.A.A.A.A.A.A.A.F.f.` = o '.jX1Xo X ) aX>XaXuX7Xo       o ).uXaX0XwXuX7X1X+.      . .   o ;.V.B.b.l.F.{.}.`.}.`.`.}._.p.p.V.A.A.",
"A.A.c.A.U.x.U.A.A.T.3.% o +XhX5XO O ( aXyXwX9X7XO o + o   `.uXqXqXqXaXaXhX-.O X X   . + o <.b.B.B.B.P.{.{.`.`.`.).`.I.n.a.A.A.A.",
"A.A.A.A.x.U.A.A.B.p.3.r t i.[. XX.@.Z.3XyXtXwXaXo     O o +XfXyXyXyXyXgXsX/   X       + o ;.V.D.B.B.P.{.}.).`.).`.`._.h.p.A.A.A.",
"A.A.A.x.U.x.U.A.S.V.n.I.m.~ X   <XhXuXdXtXyXyX0XO O     o |.9XeX;X;XyXaXhX@.; O O     + o <.f.x.x.B.F.{.{.{.}.`.}. XW.h.V.A.A.A.",
"B.B.A.A.A.A.A.A.A.V.p.p.8.r O ; 1XhXgXdXtXyXyXrXO o   O ; |.wXyX;X;XyXrX0X` O $   X     o 2.A.C.C.C.E.Q.{.{.{.`._.`.E.V.S.A.A.A.",
"A.B.A.A.x.A.A.A.f.T.Z.V.n.r o o | $.Z.0XyXyXyXdX|.+X[.[.I.-XwXqX*X*X:XrXfXOX~.~.[.[.7.- % 1.B.x.A.x.F.P.J.P.P.J.J.P.V.A.A.A.v.U.",
"B.A.A.A.A.A.A.A.A.A.p.B.n.w & & O X @.dXdXyXrXtXaXiXfXiXwXfXqX;X&X&X*XeXyX9XyXfXsXhX^.o % -.B.B.c.u.A.A.b.B.V.b.V.V.p.B.A.A.c.U.",
"V.A.A.A.A.A.A.A.f.F.V.V.V.r = o o   ) dX9XyXyXqXdX0X0X2XfXdXeXyX@X&X*XtXtXyXyX9X>XhX'.o % 1.B.y.A.x.B.C.l.Z.Z.V.B.V.A.g.D.k.v.x.",
"f.S.A.A.A.A.A.g.A.A.S.V.V.V.a.M.  X @.0XyXrXyXtXyXwXaXaXwXwXtX;X&X@X&XtXyXtXtXyXwXuX Xo % 1.f.A.D.x.B.B.A.E.XXXXV.A.V.A.A.A.A.A.",
"A.S.A.A.A.A.A.A.A.A.A.S.S.V.V.a.o   @.uXdXtXyXtXyXwXwXwXwXtXtXtX&X@X*XtXtXtXtXtXwXpX X% o ,.A.A.B.B.B.A.D.Q.XXXXA.V.A.B.A.A.U.c.",
"S.A.A.A.A.A.A.A.A.A.S.A.S.A.h.V.O   @.uXdXrXtXtXtXyXwXwXyXyXtXtX=X@X*XtXyXtXtXtXwXpX[.o % ,.B.B.B.x.B.A.A.P.Q.E.A.A.A.A.U.A.A.x.",
"V.A.A.A.A.A.A.A.A.A.D.A.S.V.S.h.o   @.uXaXrXyXtXtXtXyXqXwXtXyXtX@X@X-XtXyXtXtXtXwXpX[.% o >.b.B.A.B.A.A.x.B.A.B.A.B.A.A.A.A.A.A.",
"A.A.A.A.A.A.c.A.A.A.U.A.S.S.g.V.o X @.uXdXrXyXtXtXtXtXyXwXyXyXyX#X#X-XtXyXtX;XtXqXaX[.o o ,.b.b.C.B.V.V.b.B.S.B.A.V.A.A.A.A.V.A.",
"S.A.A.A.A.A.A.x.A.A.x.U.U.S.S.h.    $.7XaXrXtXtXtXtXtXqXtXrXrXyX3X-X9XyXtXrXtXqXqXwX[.O o >.b.B.b.b.B.V.A.J.Q.W.V.A.V.V.A.A.A.V.",
"S.A.A.A.A.A.c.A.A.A.A.U.g.U.A.h.X   @.7XaXrXyXtXtXtXtXyXyXrXyXrXwX9XwXdXrXtXtXtXqXpX[.o o >.b.b.n.b.b.Z.Z.W.XXXXA.A.V.A.V.V.V.B.",
"g.S.A.A.A.A.x.U.A.A.A.A.S.S.A.V.X   >.7XdXrXyXtXyXyXwXwXaXaXaXaXaX0XuXsX7XuX0XwXpXpX[.O o >.a.n.V.V.b.b.B.P.XXXXA.V.S.f.A.A.V.B.",
"A.A.A.A.A.A.A.A.A.A.S.D.D.A.A.h.o   @.pXyXrXyXtXgXfX}.o ; O & O X O   O o   & X 7XsX+Xo O X.N.i.G.V.n.B.Z.b.z.A.A.A.U.k.U.U.x.D.",
"A.A.S.A.A.A.V.A.A.A.A.A.A.A.A.V.X   @.0XyXtXtXrXdXsX^.      o   O       . . . : jXhX|.o O +.N.8.a.V.V.n.Z.b.p.B.f.f.S.A.u.D.x.l.",
"A.A.A.A.A.B.A.A.A.V.A.S.A.A.A.n.o   @.0XdXrXtXtX0XpXOX3.@.) ) ) ) ) G $ . 4 4 2 /.'.5.- & :.m.i.-.1.>.>.#.#.#.#.>.;.,.<./ l.C.L.",
"A.A.A.A.A.A.A.A.f.A.A.A.A.B.A.a.o   +.7XyXtXtXtX9XwX4X>X4XfXpXdXdXaX[.X X H R I @ # O o = ` m.F.* % o         . .     % o ( 6.m.",
"A.A.A.A.A.A.A.A.A.A.A.D.A.A.A.n.o   +.uXyXtXtXtXyXyXpXfXwXpXwX0XrXrX[.$ $ H R R @ . . + & ,.y.A.% o + . . @ @ @ @ . . X   3.m.m.",
"A.A.A.A.A.A.A.A.A.A.S.A.A.A.A.V.    $.uXyXtXtX;XqX3X3XwX3X3XqXwXtXwX%X(.(.I 4 4 P P 6 @   ,.A.g.%   2 D M N N N N A 6 .   #.m.m.",
"A.V.A.A.B.A.A.A.A.A.A.S.A.A.A.a.o   #.7XdXtXtXtXyXwXdXwXpXwXqXwXpXpX2XpX8X$.. @ W T N . . #.K.S.  . 6 W E e.e.e.T e.S .   @.m.b.",
"A.A.A.A.A.A.A.V.A.A.A.A.A.A.A.n.o   @.uXyXtXtXtXwXwXdX2XiXuXdX4X4X6X,XuXsX|   . R E N @ # %.d.d.. @ 1 U e.9.0.0.U E S . O #.b.B.",
"A.A.A.A.A.A.A.A.A.A.S.D.A.A.A.n.O   @.uXyXqXtXtXwX0X|.X O & % o X X & & 7 * %   @ @ < E R 2 .   . @ 5 V C 9.q.0.V Z 6 . O -.f.f.",
"B.A.A.A.A.B.A.A.A.A.A.A.A.A.A.n.o   @.0XdXqXyXqXaXuX.Xo o o % o     o * 7 7 * o . . 5 R R 1 . . . . < V C 9.q.q.Z W 6 . + 1.R.R.",
"A.A.A.A.A.A.A.A.A.A.A.D.A.A.A.b.O   @.uXyXqXyXwXaXuX.Xo & e ! ! a a Q Q Q Q Q w g d k A A m 5 5 5 , B K C 9.L Z m m p h f 4.k.k.",
"A.A.A.A.A.V.A.A.B.V.A.S.A.A.A.n.o X ( 0XyXwXyXwXpXuX Xo - | d.j.j.j.j.V.B.B.h.f.p.d.} . # M E Y Y Y T e.U L Z Z # @ j i.h.U.U.k.",
"A.A.A.A.A.V.A.A.A.A.A.D.A.A.A.n.O   O.2XyXwXyXqXaXiX[.o % ;.K.K.S.j.V.V.n.b.V.Z.U.R.<.o # n Y Y R R R T W Z S A . X h m.f.g.g.g.",
"V.A.A.A.A.A.A.A.A.A.A.S.A.A.A.n.o   @.uXyXqXyXwXpXpX Xo o ;.d.h.g.f.A.b.b.b.V.A.u.f.t.| $.n 5 4 4 4 < 5 1 1 , 2 $.( 3.c.y.D.R.F.",
"B.A.A.A.A.A.A.A.S.A.A.A.A.A.A.a.o   @.4XdXqXwXwXwXpX|.O O ,.h.A.C.c.B.A.V.V.S.A.c.y.Z.Z.N.n . . . . . @ @ @ .   m.m.z.c.t.c.B.r.",
"A.A.A.A.A.A.A.A.A.A.A.A.A.B.A.n.o   @.4XdXqXwXqXpX2X[.O o :.V.C.v.v.v.A.V.V.F.A.F.z.C.m.m.q   .   . . . @ .   X m.m.v.L.v.C.b.Z."
};
